# xmcd
#
# Track frame offsets:
#	150
#	3850
#	16747
#	31851
#	46186
#	61447
#	74958
#	90493
#	106366
#	120517
#	135001
#	149302
#	165657
#
# Disc length: 2230 seconds
#
# Revision: 0
# Processed by: cddbd v1.5.2PL0 Copyright (c) Steve Scherf et al.
# Submitted via: EasyCDDAExtractor 16.0.6.1
#
DISCID=9e08b40d
DTITLE=Βέμπο Σοφία - Τα τραγούδια της νίκης
DYEAR=2012
DGENRE=Πατριωτική
TTITLE0=Σταυρόπουλος Κώστας - Έκτακτο ανακοινωθέν
TTITLE1=Βέμπο Σοφία - Στης Αλβανίας τα βουνά [Μίμης Τραϊφόρος]
TTITLE2=Βέμπο Σοφία - Μας χωρίζει ο πόλεμος [Μ. Σουγιούλ-Κ. Κοφινιώτης]
TTITLE3=Βέμπο Σοφία - Στον πόλεμο βγαίν' ο Ιταλός [Απ. Μοσχούτης-Γ. Θίσβιος/Σ.
TTITLE3=Βέμπο]
TTITLE4=Βέμπο Σοφία - Βάζει ο Ντούτσε την στολή του [Θεόφρ. Σακελλαρίδης-Γ. Θί
TTITLE4=σβιος]
TTITLE5=Βέμπο Σοφία - Το τραγούδι της λευτεριάς [Μεν. Θεοφανίδης-Κ. Ασημ/ουλος
TTITLE5=,Π.Παπαδούκας,Β.Σπυρ/λος]
TTITLE6=Βέμπο Σοφία - Παιδιά, της Ελλάδος παιδιά [Μ. Σουγιούλ-Μ. Τραϊφόρος/Αιμ
TTITLE6=Σαββίδης]
TTITLE7=Βέμπο Σοφία - Δυό αγάπες [Μ. Σουγιούλ-Κ. Κοφινιώτης]
TTITLE8=Βέμπο Σοφία - Πω, πω τι έπαθε ο Μουσολίνι [Giov. Casiroli/P.Marchetti-
TTITLE8=Gius. Rastelli, απ. Πωλ Μενεστρέλ]
TTITLE9=Βέμπο Σοφία - Στα παιδιά μας που τ' άρπαξαν [Μ. Σουγιούλ/Αιμ. Σαββίδης
TTITLE9=Μ.Τραϊφόρος]
TTITLE10=Βέμπο Σοφία - Το τραγούδι του Μωριά [Θεόφρ. Σακελλαρίδης-Μ. Τραϊφόρος
TTITLE10=]
TTITLE11=Βέμπο Σοφία - Κάνε κουράγιο Ελλάδα μου [Μ. Σουγιούλ-Μ. Τραϊφόρος]
TTITLE12=Βέμπο Σοφία - Συνέντευξη Σ. Βέμπο
EXTD=
EXTT0=
EXTT1=
EXTT2=
EXTT3=
EXTT4=
EXTT5=
EXTT6=
EXTT7=
EXTT8=
EXTT9=
EXTT10=
EXTT11=
EXTT12=
PLAYORDER=
